<?xml version="1.0" encoding="UTF-8"?><svg id="Capa_2" xmlns="http://www.w3.org/2000/svg" viewBox="0 0 865.43 215.82"><defs><style>.cls-1{fill:blue;}.cls-2{fill:#b7f427;}</style></defs><g id="Capa_1-2"><path class="cls-1" d="M235.63,23c.25-.25.51-.5.77-.75-13.96-12.73-32.5-20.51-52.84-20.51s-38.58,7.65-52.5,20.19C117.14,9.38,98.73,1.73,78.56,1.73,35.61,1.73.62,36.4.07,79.22h-.07v132.22h52.06V80.25h.04c0-14.59,11.87-26.46,26.46-26.46s26.46,11.87,26.46,26.46v131.19h52.06V80.25h.03c0-14.59,11.87-26.46,26.46-26.46,10.63,0,19.81,6.31,24.01,15.37.86-2.62,1.81-5.2,2.85-7.73,6.09-14.8,14.57-27.74,25.21-38.44Z"/><path class="cls-1" d="M210.42,160.59c-.12-.3-.24-.6-.36-.9v51.75h41.34c-5.58-3.71-10.79-7.91-15.61-12.6-10.72-10.43-19.26-23.3-25.38-38.24Z"/><path class="cls-1" d="M426.62,210.99l-11.76-.04-20.11-26.82c-4.93,4.43-10.15,8.57-15.65,12.43-5.5,3.86-11.29,7.21-17.36,10.06-6.07,2.85-12.3,5.09-18.69,6.74-6.39,1.64-12.87,2.47-19.45,2.47-14.29,0-27.73-2.4-40.32-7.21-12.59-4.81-23.59-11.79-33.01-20.97-9.42-9.17-16.86-20.4-22.29-33.68-5.44-13.28-8.16-28.39-8.16-45.34,0-15.81,2.72-30.32,8.16-43.54,5.44-13.22,12.87-24.57,22.29-34.06,9.42-9.49,20.43-16.85,33.01-22.1,12.58-5.25,26.02-7.87,40.32-7.87,6.58,0,13.09.82,19.54,2.47,6.45,1.64,12.71,3.92,18.78,6.83,6.07,2.91,11.86,6.33,17.36,10.25,5.5,3.92,10.65,8.16,15.46,12.71l16.52-19.08,15.36-.13v196.89ZM375.21,108.62c0-7.08-1.36-13.95-4.08-20.59-2.72-6.64-6.42-12.52-11.1-17.64-4.68-5.12-10.15-9.23-16.41-12.33-6.26-3.1-12.93-4.65-20.02-4.65s-13.75,1.2-20.02,3.6c-6.26,2.4-11.7,5.95-16.32,10.62-4.62,4.68-8.25,10.47-10.91,17.36-2.66,6.9-3.98,14.77-3.98,23.62s1.33,16.73,3.98,23.62c2.66,6.9,6.29,12.68,10.91,17.36,4.62,4.68,10.06,8.22,16.32,10.62,6.26,2.4,12.93,3.6,20.02,3.6s13.76-1.55,20.02-4.65c6.26-3.1,11.73-7.21,16.41-12.33,4.68-5.12,8.38-11,11.1-17.64,2.72-6.64,4.08-13.5,4.08-20.58Z"/><path class="cls-1" d="M865.43,211.49h-12.97s-21.14-28.15-21.14-28.15c-5.13,4.43-10.56,8.57-16.28,12.43-5.72,3.86-11.74,7.21-18.06,10.06-6.32,2.85-12.8,5.09-19.44,6.74-6.65,1.64-13.39,2.47-20.23,2.47-14.87,0-28.85-2.4-41.94-7.21-13.09-4.81-24.54-11.79-34.34-20.97-9.8-9.17-17.54-20.4-23.19-33.68-5.66-13.28-8.49-28.39-8.49-45.34,0-15.81,2.83-30.32,8.49-43.54,5.66-13.22,13.39-24.57,23.19-34.06,9.8-9.49,21.25-16.85,34.34-22.1,13.09-5.25,27.07-7.87,41.94-7.87,6.84,0,13.62.82,20.33,2.47,6.71,1.64,13.22,3.92,19.54,6.83,6.32,2.91,12.34,6.33,18.06,10.25,5.72,3.92,11.08,8.16,16.09,12.71l15.63-17.88h18.47v196.87ZM811,107.83c0-7.08-1.42-13.95-4.24-20.59-2.83-6.64-6.68-12.52-11.55-17.64-4.87-5.12-10.56-9.23-17.07-12.33-6.51-3.1-13.46-4.65-20.82-4.65s-14.31,1.2-20.82,3.6c-6.51,2.4-12.17,5.95-16.97,10.62-4.81,4.68-8.59,10.47-11.35,17.36-2.76,6.9-4.14,14.77-4.14,23.62s1.38,16.73,4.14,23.62c2.76,6.9,6.54,12.68,11.35,17.36,4.8,4.68,10.46,8.22,16.97,10.62,6.51,2.4,13.45,3.6,20.82,3.6s14.31-1.55,20.82-4.65c6.51-3.1,12.2-7.21,17.07-12.33,4.87-5.12,8.72-11,11.55-17.64,2.83-6.64,4.24-13.5,4.24-20.58Z"/><path class="cls-1" d="M644.68,48.33l-40.62,38.24c-2.03-5.33-4.81-10.11-8.33-14.36-3.52-4.25-7.48-7.83-11.88-10.75-4.4-2.92-9.18-5.14-14.32-6.66-5.15-1.52-10.43-2.28-15.84-2.28-7.58,0-14.73,1.46-21.43,4.38-6.7,2.92-12.53,7.01-17.47,12.27-4.95,5.26-8.84,11.51-11.68,18.74-2.84,7.23-4.26,15.22-4.26,23.97,0,7.1,1.42,13.76,4.26,19.98,2.84,6.22,6.73,11.67,11.68,16.36,4.94,4.69,10.76,8.37,17.47,11.04,6.7,2.66,13.84,4,21.43,4,5.42,0,10.63-.7,15.64-2.09,5.01-1.39,9.71-3.39,14.12-5.99,4.4-2.6,8.33-5.77,11.78-9.51,3.45-3.74,6.26-7.9,8.43-12.46l40.62,38.24c-5.15,6.85-11.07,13-17.77,18.46-6.7,5.46-13.95,10.08-21.73,13.89-7.79,3.8-15.98,6.69-24.58,8.66-8.6,1.97-17.44,2.95-26.51,2.95-15.3,0-29.69-2.7-43.16-8.09-13.47-5.39-25.26-12.78-35.34-22.17-10.09-9.39-18.05-20.36-23.87-32.92-5.82-12.56-8.73-26-8.73-40.34,0-15.6,2.91-30.19,8.73-43.76,5.82-13.57,13.78-25.4,23.87-35.48,10.09-10.08,21.87-18.04,35.34-23.88,13.47-5.83,27.86-8.75,43.16-8.75,9.07,0,17.98,1.08,26.71,3.23,8.73,2.16,17.06,5.3,24.98,9.42,7.92,4.12,15.23,9.17,21.94,15.13,6.7,5.96,12.49,12.81,17.37,20.55Z"/><polygon class="cls-2" points="785.33 134.12 763.09 120.07 757.29 145.73 751.5 120.07 729.26 134.12 743.3 111.88 717.65 106.08 743.3 100.29 729.26 78.05 751.5 92.1 757.29 66.44 763.09 92.1 785.33 78.05 771.28 100.29 796.94 106.08 771.28 111.88 785.33 134.12"/></g></svg>